<svg xmlns="http://www.w3.org/2000/svg" xmlns:xlink="http://www.w3.org/1999/xlink" viewBox="240.09 579.15 937.14 259.02" version="1.1">
<g id="surface1">
<path style="fill:none;stroke-width:0.216;stroke-linecap:butt;stroke-linejoin:miter;stroke:rgb(34.117126%,33.724976%,33.724976%);stroke-opacity:1;stroke-miterlimit:22.925586;" d="M 1087.171875 630.54155 L 1087.171875 630.900925 " transform="matrix(1,0,0,-1,0,1417.3228)"></path>
<path style="fill:none;stroke-width:0.216;stroke-linecap:butt;stroke-linejoin:miter;stroke:rgb(34.117126%,33.724976%,33.724976%);stroke-opacity:1;stroke-miterlimit:22.925586;" d="M 1089.152344 630.279831 L 1089.152344 630.6353 " transform="matrix(1,0,0,-1,0,1417.3228)"></path>
<path style="fill-rule:evenodd;fill:rgb(100%,100%,100%);fill-opacity:1;stroke-width:1.5001;stroke-linecap:butt;stroke-linejoin:miter;stroke:rgb(10.195923%,10.195923%,9.411621%);stroke-opacity:1;stroke-miterlimit:22.925586;" d="M 1011.0625 747.240769 C 1010.351562 747.596237 1009.636719 747.955612 1008.921875 748.66655 C 1008.921875 749.381394 1010.351562 750.451706 1011.0625 750.807175 C 1011.0625 750.807175 1011.414062 750.807175 1011.773438 750.807175 C 1011.773438 750.807175 1011.773438 751.162644 1012.128906 751.522019 L 1012.484375 751.522019 C 1013.199219 751.522019 1013.910156 750.451706 1014.980469 750.807175 C 1015.335938 750.100144 1016.050781 750.807175 1016.765625 749.736862 C 1016.050781 749.381394 1015.335938 749.022019 1014.269531 748.66655 C 1013.199219 747.596237 1011.773438 747.955612 1011.0625 747.240769 Z M 1011.0625 747.240769 " transform="matrix(1,0,0,-1,0,1417.3228)"></path>
<path style="fill-rule:evenodd;fill:rgb(100%,100%,100%);fill-opacity:1;stroke-width:2.0001;stroke-linecap:butt;stroke-linejoin:miter;stroke:rgb(10.195923%,10.195923%,9.411621%);stroke-opacity:1;stroke-miterlimit:22.925586;" d="M 1092.023438 665.91655 C 1087.457031 657.740769 1079.863281 651.272019 1075.601562 643.830612 C 1073.464844 639.904831 1071.324219 635.982956 1070.253906 632.061081 C 1069.898438 631.350144 1069.1875 631.350144 1068.832031 630.994675 L 1068.46875 630.994675 C 1064.910156 628.850144 1063.832031 624.932175 1063.121094 622.080612 C 1063.121094 622.080612 1062.410156 621.717331 1062.765625 621.361862 C 1062.765625 621.006394 1062.410156 620.650925 1061.699219 620.299362 L 1056.707031 620.299362 C 1056.707031 620.299362 1056.707031 620.299362 1056.347656 620.650925 C 1057.769531 622.787644 1058.839844 625.287644 1060.625 627.424362 C 1062.410156 630.545456 1065.582031 635.592331 1067.757812 637.768112 C 1069.996094 641.689987 1071.996094 645.439987 1073.820312 649.529831 C 1074.792969 650.5103 1074.902344 651.334519 1075.601562 652.389206 L 1078.460938 658.807175 C 1079.167969 663.084519 1080.597656 667.0103 1080.597656 671.647019 L 1080.976562 676.29155 C 1078.585938 678.803269 1079.050781 679.459519 1077.746094 678.772019 C 1070.652344 676.436081 1055.992188 676.127487 1055.515625 674.6978 L 1055.441406 610.705612 L 1050.382812 605.768112 L 1046.800781 610.439987 L 1047.011719 672.045456 C 1045.628906 671.5103 1039.75 671.795456 1038.40625 672.471237 C 1037.804688 672.471237 1036.183594 673.654831 1036.554688 672.475144 C 1037.90625 668.186081 1039.9375 663.873581 1037.800781 659.873581 C 1037.800781 659.693894 1035.910156 656.4478 1035.664062 655.955612 C 1035.664062 655.529831 1029.574219 633.045456 1028.886719 630.994675 C 1027.828125 632.057175 1025 627.295456 1024.609375 626.713425 C 1024.609375 624.60405 1023.179688 622.076706 1023.179688 621.361862 L 1022.832031 621.006394 C 1021.757812 620.295456 1020.332031 620.654831 1018.902344 620.654831 C 1018.546875 620.654831 1018.902344 621.006394 1018.546875 621.361862 C 1019.660156 623.60405 1020.695312 625.865769 1021.757812 628.139206 C 1022.472656 629.209519 1022.472656 630.275925 1022.832031 631.709519 C 1022.832031 631.709519 1022.832031 631.709519 1023.179688 632.061081 L 1023.179688 632.41655 C 1024.257812 633.842331 1024.257812 635.982956 1025.320312 637.408737 C 1025.320312 638.123581 1026.035156 638.838425 1025.683594 639.545456 L 1026.035156 639.908737 L 1027.820312 645.975144 C 1028.53125 648.8228 1028.886719 652.029831 1028.886719 655.240769 L 1027.105469 662.373581 C 1027.105469 665.279831 1023.457031 675.209519 1019.976562 675.209519 C 1015.113281 670.826706 1012.507812 666.893112 1007.132812 664.514206 C 1005.832031 664.514206 1004.109375 662.744675 1003.570312 661.658737 C 1002.144531 658.4478 1003.570312 655.240769 1004.28125 652.029831 C 1004.28125 651.795456 1006.15625 646.576706 1006.421875 645.252487 L 1007.851562 642.404831 C 1009.863281 640.889206 1012.023438 642.045456 1013.554688 642.045456 C 1014.980469 640.619675 1015.339844 638.838425 1015.695312 637.049362 L 1015.339844 636.342331 C 1014.273438 637.408737 1013.199219 637.408737 1012.125 638.123581 L 1011.414062 638.123581 L 1011.414062 637.408737 C 1011.769531 636.6978 1012.839844 636.6978 1013.910156 635.982956 C 1013.910156 635.982956 1014.273438 635.627487 1014.273438 635.272019 L 1013.910156 632.41655 C 1012.539062 632.41655 1013.480469 632.772019 1012.839844 632.772019 C 1010.351562 635.272019 1007.851562 636.342331 1005.347656 639.193894 L 1005.347656 639.545456 C 1003.570312 641.334519 1002.855469 643.475144 1000.71875 645.975144 C 993.820312 652.459519 998.71875 659.975144 996.085938 665.221237 C 997.507812 667.0103 999.292969 668.076706 1001.074219 669.857956 C 1003.929688 672.002487 1007.132812 675.209519 1009.988281 678.420456 C 1011.226562 679.932175 1012.625 682.596237 1014.578125 684.29155 C 1014.128906 687.623581 1013.835938 689.439987 1013.199219 691.971237 C 1011.910156 700.920456 1016.53125 722.623581 1012.554688 733.920456 C 1013.925781 734.838425 1010.480469 732.049362 1012.554688 733.920456 C 1012.191406 736.764206 1004.882812 735.857956 1002.886719 736.397019 C 1002.222656 735.7603 995.28125 732.330612 993.589844 734.049362 C 993.589844 734.881394 994.574219 735.787644 995.195312 736.107956 C 991.847656 735.107956 991.210938 734.939987 990.375 735.475144 C 989.664062 736.186081 988.949219 737.256394 988.949219 738.326706 C 992.105469 741.537644 997.292969 745.537644 1001.429688 747.596237 C 1004.015625 749.318894 1008.882812 753.502487 1011.496094 755.658737 C 1013.304688 757.463425 1014.597656 756.615769 1015.273438 757.037644 C 1013.925781 759.04155 1012.578125 762.553269 1012.484375 762.932175 L 1012.839844 762.932175 C 1013.59375 763.682175 1021.019531 759.174362 1020.90625 757.033737 C 1020.917969 756.873581 1024.390625 755.1353 1025.015625 753.482956 C 1025.277344 752.779831 1032.546875 760.272019 1033.84375 758.975144 C 1030.152344 752.611862 1032.707031 758.057175 1028.625 749.221237 C 1029.054688 748.490769 1029.238281 748.221237 1029.601562 747.596237 C 1032.257812 742.990769 1029.460938 722.72905 1039.230469 713.014206 C 1040.539062 713.014206 1043.203125 711.22905 1046.519531 711.22905 L 1046.800781 733.393112 L 1045.109375 733.443894 C 1044.394531 733.443894 1043.683594 734.154831 1043.683594 735.22905 C 1043.683594 735.463425 1043.765625 735.701706 1043.894531 735.912644 L 1043.324219 735.939987 C 1040.261719 735.939987 1040.65625 741.998581 1043.683594 741.998581 L 1044.113281 741.97905 C 1044.066406 742.201706 1044.039062 742.4478 1044.039062 742.717331 C 1044.039062 743.428269 1044.75 744.139206 1045.464844 744.139206 L 1046.800781 744.150925 C 1045.253906 755.725144 1066.414062 762.795456 1068.46875 777.193894 C 1070.257812 787.893112 1067.757812 790.033737 1065.261719 794.674362 C 1059.554688 799.303269 1058.128906 800.72905 1052.066406 802.162644 C 1047.429688 802.162644 1041.015625 801.088425 1037.09375 797.877487 C 1031.386719 792.8853 1028.886719 788.607956 1028.886719 781.475144 C 1030.671875 773.986862 1035.664062 771.131394 1038.878906 770.775925 C 1042.796875 770.775925 1045.648438 772.91655 1047.429688 778.623581 L 1053.847656 774.342331 C 1051 768.6353 1044.933594 762.932175 1038.519531 762.932175 C 1033.523438 763.287644 1020.683594 769.350144 1021.402344 782.189987 C 1021.757812 791.814987 1025.320312 798.9478 1032.8125 804.654831 C 1040.304688 808.932175 1045.648438 809.650925 1052.421875 809.29155 C 1062.40625 808.5728 1065.976562 804.654831 1071.679688 798.592331 C 1074.53125 793.244675 1077.742188 789.674362 1076.316406 777.193894 C 1074.84375 761.002487 1056.0625 755.369675 1055.441406 744.080612 L 1057.28125 744.057175 C 1058.835938 743.955612 1058.59375 743.670456 1058.6875 742.799362 C 1058.660156 742.549362 1058.550781 742.1978 1058.300781 742.014206 L 1058.949219 742.014206 C 1060.765625 742.014206 1062.15625 735.920456 1058.398438 735.920456 L 1058.269531 735.924362 C 1058.90625 734.97905 1058.734375 733.432175 1056.839844 733.432175 L 1055.550781 733.432175 L 1055.398438 712.307175 C 1056.097656 712.330612 1056.925781 712.404831 1057.414062 712.650925 C 1081.464844 717.490769 1088.914062 714.346237 1109.480469 704.096237 C 1110.683594 704.096237 1114.933594 703.736862 1116.097656 704.022019 L 1115.539062 703.377487 C 1114.070312 700.936081 1110.675781 698.740769 1107.699219 698.740769 C 1106.984375 696.959519 1107.339844 694.107956 1106.273438 691.615769 C 1104.351562 685.877487 1102.664062 678.397019 1103.414062 672.35405 L 1103.414062 672.002487 C 1103.769531 668.795456 1105.554688 665.584519 1105.554688 662.373581 C 1103.414062 659.162644 1101.273438 655.596237 1099.144531 652.029831 C 1099.144531 652.029831 1098.421875 651.674362 1098.785156 651.318894 C 1098.070312 650.60405 1098.070312 649.889206 1097.355469 648.8228 C 1095.570312 645.611862 1093.792969 642.7603 1092.363281 639.908737 C 1091.867188 637.436081 1089.953125 633.225144 1088.082031 631.350144 L 1085.589844 629.209519 L 1081.664062 625.998581 C 1081.664062 625.643112 1081.308594 625.643112 1081.308594 625.287644 L 1078.457031 619.936081 C 1077.03125 619.221237 1075.246094 619.936081 1073.820312 619.221237 C 1073.820312 619.221237 1073.464844 619.221237 1073.105469 619.221237 L 1072.746094 619.221237 C 1073.820312 622.080612 1076.316406 624.221237 1078.457031 627.0728 L 1078.457031 627.424362 L 1081.664062 632.061081 C 1085.335938 635.205612 1090.359375 644.486862 1092.71875 649.529831 L 1092.71875 649.889206 C 1094.144531 654.529831 1095.921875 659.518112 1093.792969 664.514206 C 1093.738281 664.537644 1092.550781 666.225144 1092.023438 665.91655 Z M 1092.023438 665.91655 " transform="matrix(1,0,0,-1,0,1417.3228)"></path>
<path style=" stroke:none;fill-rule:evenodd;fill:rgb(10.195923%,10.195923%,9.411621%);fill-opacity:1;" d="M 1119.464844 778.839844 C 1154.054688 744.609375 1176.164062 716.4375 1177.230469 710.019531 C 1156.191406 731.058594 1134.796875 752.097656 1113.757812 773.136719 C 1092.71875 794.535156 1071.679688 815.566406 1050.28125 836.96875 C 1060.269531 833.402344 1090.222656 808.078125 1119.464844 778.839844 Z M 1119.464844 778.839844 "></path>
<path style=" stroke:none;fill-rule:evenodd;fill:rgb(10.195923%,10.195923%,9.411621%);fill-opacity:1;" d="M 1119.105469 637.269531 C 1153.339844 671.507812 1175.449219 699.679688 1176.875 706.097656 C 1155.480469 685.058594 1134.082031 664.019531 1113.042969 642.980469 C 1092.003906 621.941406 1070.964844 600.539062 1049.925781 579.148438 C 1059.554688 582.714844 1089.867188 608.03125 1119.105469 637.269531 Z M 1119.105469 637.269531 "></path>
<path style=" stroke:none;fill-rule:evenodd;fill:rgb(10.195923%,10.195923%,9.411621%);fill-opacity:1;" d="M 978.609375 637.269531 C 944.019531 671.863281 921.914062 699.679688 920.839844 706.453125 C 941.878906 685.058594 963.273438 664.019531 984.3125 642.980469 C 1005.351562 621.941406 1026.390625 600.539062 1047.785156 579.507812 C 1037.800781 582.714844 1007.851562 608.390625 978.609375 637.269531 Z M 978.609375 637.269531 "></path>
<path style=" stroke:none;fill-rule:evenodd;fill:rgb(10.195923%,10.195923%,9.411621%);fill-opacity:1;" d="M 978.609375 778.839844 C 944.019531 744.253906 921.914062 716.4375 920.839844 709.664062 C 941.878906 731.058594 963.273438 752.097656 984.3125 773.136719 C 1005.351562 794.175781 1026.390625 815.566406 1047.785156 836.609375 C 1037.800781 833.402344 1007.851562 808.078125 978.609375 778.839844 Z M 978.609375 778.839844 "></path>
<path style=" stroke:none;fill-rule:nonzero;fill:rgb(10.195923%,10.195923%,9.411621%);fill-opacity:1;" d="M 453.652344 751.539062 L 470.246094 708.34375 L 476.402344 708.34375 L 494.082031 751.539062 L 487.566406 751.539062 L 482.527344 738.457031 L 464.464844 738.457031 L 459.726562 751.539062 Z M 466.113281 733.800781 L 480.765625 733.800781 L 476.25 721.84375 C 474.882812 718.210938 473.855469 715.226562 473.191406 712.882812 C 472.640625 715.65625 471.867188 718.402344 470.859375 721.136719 Z M 497.558594 741.734375 L 501.679688 741.171875 C 501.792969 743.804688 502.292969 745.617188 503.167969 746.589844 C 504.054688 747.566406 505.269531 748.050781 506.820312 748.050781 C 507.964844 748.050781 508.960938 747.789062 509.796875 747.265625 C 510.632812 746.730469 511.203125 746.019531 511.515625 745.113281 C 511.828125 744.207031 511.988281 742.769531 511.988281 740.789062 L 511.988281 716.984375 L 516.554688 716.984375 L 516.554688 740.527344 C 516.554688 743.421875 516.214844 745.667969 515.507812 747.246094 C 514.816406 748.835938 513.699219 750.050781 512.191406 750.875 C 510.671875 751.710938 508.890625 752.132812 506.851562 752.132812 C 503.8125 752.132812 501.488281 751.257812 499.878906 749.507812 C 498.269531 747.769531 497.496094 745.171875 497.558594 741.734375 Z M 548.882812 716.984375 L 553.460938 716.984375 L 553.460938 736.945312 C 553.460938 740.425781 553.066406 743.183594 552.285156 745.222656 C 551.488281 747.265625 550.070312 748.925781 548.019531 750.210938 C 545.976562 751.488281 543.28125 752.132812 539.953125 752.132812 C 536.714844 752.132812 534.070312 751.570312 532.007812 750.453125 C 529.945312 749.335938 528.480469 747.726562 527.605469 745.617188 C 526.71875 743.496094 526.277344 740.609375 526.277344 736.945312 L 526.277344 716.984375 L 530.851562 716.984375 L 530.851562 736.925781 C 530.851562 739.921875 531.132812 742.136719 531.6875 743.5625 C 532.25 744.980469 533.207031 746.078125 534.5625 746.851562 C 535.921875 747.617188 537.589844 748 539.550781 748 C 542.910156 748 545.316406 747.246094 546.742188 745.714844 C 548.171875 744.199219 548.882812 741.261719 548.882812 736.925781 Z M 563.203125 751.539062 L 563.203125 716.984375 L 567.890625 716.984375 L 586.042969 744.117188 L 586.042969 716.984375 L 590.425781 716.984375 L 590.425781 751.539062 L 585.730469 751.539062 L 567.585938 724.386719 L 567.585938 751.539062 Z M 609.078125 751.539062 L 609.078125 721.066406 L 597.695312 721.066406 L 597.695312 716.984375 L 625.078125 716.984375 L 625.078125 721.066406 L 613.644531 721.066406 L 613.644531 751.539062 Z M 628.152344 751.539062 L 641.429688 716.984375 L 646.347656 716.984375 L 660.496094 751.539062 L 655.289062 751.539062 L 651.253906 741.070312 L 636.804688 741.070312 L 633.011719 751.539062 Z M 638.121094 737.347656 L 649.835938 737.347656 L 646.234375 727.777344 C 645.128906 724.867188 644.316406 722.484375 643.78125 720.613281 C 643.339844 722.828125 642.714844 725.03125 641.921875 727.210938 Z M 666.183594 751.539062 L 666.183594 716.984375 L 673.074219 716.984375 L 681.25 741.453125 C 682.003906 743.726562 682.558594 745.433594 682.898438 746.5625 C 683.292969 745.304688 683.90625 743.464844 684.742188 741.03125 L 693.007812 716.984375 L 699.164062 716.984375 L 699.164062 751.539062 L 694.757812 751.539062 L 694.757812 722.617188 L 684.710938 751.539062 L 680.585938 751.539062 L 670.601562 722.125 L 670.601562 751.539062 Z M 708.8125 751.539062 L 708.8125 716.984375 L 733.792969 716.984375 L 733.792969 721.066406 L 713.378906 721.066406 L 713.378906 731.648438 L 732.496094 731.648438 L 732.496094 735.699219 L 713.378906 735.699219 L 713.378906 747.464844 L 734.597656 747.464844 L 734.597656 751.539062 Z M 743.054688 751.539062 L 743.054688 716.984375 L 747.742188 716.984375 L 765.894531 744.117188 L 765.894531 716.984375 L 770.277344 716.984375 L 770.277344 751.539062 L 765.582031 751.539062 L 747.4375 724.386719 L 747.4375 751.539062 Z M 788.929688 751.539062 L 788.929688 721.066406 L 777.546875 721.066406 L 777.546875 716.984375 L 804.929688 716.984375 L 804.929688 721.066406 L 793.496094 721.066406 L 793.496094 751.539062 Z M 830.742188 751.539062 L 830.742188 716.984375 L 842.648438 716.984375 C 845.332031 716.984375 847.386719 717.144531 848.804688 717.476562 C 850.785156 717.941406 852.464844 718.765625 853.871094 719.953125 C 855.691406 721.488281 857.050781 723.460938 857.957031 725.855469 C 858.859375 728.257812 859.3125 730.992188 859.3125 734.070312 C 859.3125 736.695312 859 739.019531 858.398438 741.050781 C 857.785156 743.082031 856.988281 744.75 856.035156 746.078125 C 855.078125 747.40625 854.035156 748.453125 852.886719 749.214844 C 851.75 749.980469 850.371094 750.554688 848.761719 750.945312 C 847.15625 751.339844 845.304688 751.539062 843.210938 751.539062 Z M 835.316406 747.464844 L 842.699219 747.464844 C 844.972656 747.464844 846.761719 747.246094 848.058594 746.824219 C 849.355469 746.402344 850.382812 745.808594 851.15625 745.03125 C 852.242188 743.945312 853.085938 742.488281 853.691406 740.65625 C 854.292969 738.828125 854.597656 736.613281 854.597656 734 C 854.597656 730.390625 854.003906 727.613281 852.816406 725.671875 C 851.628906 723.734375 850.191406 722.425781 848.492188 721.769531 C 847.265625 721.296875 845.292969 721.066406 842.578125 721.066406 L 835.316406 721.066406 Z M 867.878906 751.539062 L 867.878906 716.984375 L 892.859375 716.984375 L 892.859375 721.066406 L 872.445312 721.066406 L 872.445312 731.648438 L 891.5625 731.648438 L 891.5625 735.699219 L 872.445312 735.699219 L 872.445312 747.464844 L 893.664062 747.464844 L 893.664062 751.539062 Z M 867.878906 751.539062 "></path>
<path style=" stroke:none;fill-rule:nonzero;fill:rgb(10.195923%,10.195923%,9.411621%);fill-opacity:1;" d="M 270.757812 837.085938 L 240.089844 757.933594 L 251.441406 757.933594 L 272.011719 815.433594 C 273.667969 820.039062 275.050781 824.371094 276.15625 828.386719 C 277.390625 824.074219 278.8125 819.761719 280.433594 815.433594 L 301.808594 757.933594 L 312.5 757.933594 L 281.5 837.085938 Z M 321.621094 837.085938 L 321.621094 773.761719 L 329.988281 773.761719 L 329.988281 837.085938 Z M 344.4375 837.085938 L 344.4375 773.761719 L 352.804688 773.761719 L 352.804688 829.621094 L 383.984375 829.621094 L 383.984375 837.085938 Z M 387.027344 837.085938 L 411.351562 773.761719 L 420.363281 773.761719 L 446.292969 837.085938 L 436.75 837.085938 L 429.359375 817.902344 L 402.875 817.902344 L 395.929688 837.085938 Z M 405.289062 811.082031 L 426.761719 811.082031 L 420.164062 793.539062 C 418.136719 788.210938 416.640625 783.84375 415.664062 780.417969 C 414.855469 784.472656 413.710938 788.507812 412.253906 792.507812 Z M 452.726562 837.085938 L 452.726562 773.761719 L 465.351562 773.761719 L 480.332031 818.601562 C 481.714844 822.765625 482.730469 825.898438 483.355469 827.964844 C 484.074219 825.660156 485.199219 822.289062 486.726562 817.828125 L 501.875 773.761719 L 513.15625 773.761719 L 513.15625 837.085938 L 505.082031 837.085938 L 505.082031 784.082031 L 486.671875 837.085938 L 479.117188 837.085938 L 460.816406 783.179688 L 460.816406 837.085938 Z M 519.714844 837.085938 L 544.042969 773.761719 L 553.054688 773.761719 L 578.984375 837.085938 L 569.4375 837.085938 L 562.046875 817.902344 L 535.566406 817.902344 L 528.617188 837.085938 Z M 537.980469 811.082031 L 559.449219 811.082031 L 552.851562 793.539062 C 550.824219 788.210938 549.332031 783.84375 548.355469 780.417969 C 547.542969 784.472656 546.402344 788.507812 544.945312 792.507812 Z M 585.601562 837.085938 L 585.601562 773.761719 L 594.1875 773.761719 L 627.453125 823.484375 L 627.453125 773.761719 L 635.488281 773.761719 L 635.488281 837.085938 L 626.882812 837.085938 L 593.636719 787.328125 L 593.636719 837.085938 Z M 650.988281 837.085938 L 650.988281 773.761719 L 659.355469 773.761719 L 659.355469 837.085938 Z M 671.296875 816.742188 L 679.203125 816.058594 C 679.570312 819.210938 680.4375 821.808594 681.800781 823.855469 C 683.183594 825.878906 685.300781 827.523438 688.175781 828.773438 C 691.050781 830.027344 694.296875 830.652344 697.890625 830.652344 C 701.097656 830.652344 703.914062 830.175781 706.367188 829.214844 C 708.816406 828.277344 710.625 826.96875 711.820312 825.308594 C 713.019531 823.652344 713.628906 821.84375 713.628906 819.890625 C 713.628906 817.902344 713.039062 816.167969 711.894531 814.695312 C 710.734375 813.203125 708.835938 811.96875 706.183594 810.953125 C 704.488281 810.289062 700.726562 809.257812 694.921875 807.859375 C 689.097656 806.476562 685.027344 805.148438 682.683594 803.914062 C 679.664062 802.328125 677.414062 800.355469 675.941406 798.015625 C 674.445312 795.675781 673.710938 793.039062 673.710938 790.128906 C 673.710938 786.941406 674.613281 783.953125 676.4375 781.171875 C 678.242188 778.390625 680.898438 776.289062 684.378906 774.851562 C 687.863281 773.414062 691.734375 772.675781 695.992188 772.675781 C 700.691406 772.675781 704.835938 773.433594 708.414062 774.960938 C 712.003906 776.472656 714.75 778.683594 716.6875 781.632812 C 718.621094 784.5625 719.652344 787.878906 719.800781 791.601562 L 711.765625 792.210938 C 711.324219 788.210938 709.867188 785.191406 707.378906 783.144531 C 704.890625 781.097656 701.207031 780.066406 696.339844 780.066406 C 691.273438 780.066406 687.585938 781.007812 685.265625 782.847656 C 682.945312 784.710938 681.78125 786.957031 681.78125 789.574219 C 681.78125 791.84375 682.613281 793.722656 684.253906 795.195312 C 685.855469 796.652344 690.074219 798.164062 696.875 799.691406 C 703.695312 801.242188 708.355469 802.585938 710.898438 803.746094 C 714.585938 805.441406 717.3125 807.597656 719.0625 810.199219 C 720.816406 812.796875 721.699219 815.800781 721.699219 819.210938 C 721.699219 822.5625 720.722656 825.75 718.804688 828.71875 C 716.871094 831.703125 714.105469 834.027344 710.496094 835.683594 C 706.863281 837.34375 702.808594 838.171875 698.277344 838.171875 C 692.5625 838.171875 687.753906 837.324219 683.882812 835.667969 C 680.011719 833.988281 676.972656 831.484375 674.761719 828.128906 C 672.566406 824.777344 671.40625 820.980469 671.296875 816.742188 Z M 778.332031 814.878906 L 786.71875 816.996094 C 784.949219 823.890625 781.796875 829.125 777.226562 832.738281 C 772.65625 836.367188 767.089844 838.171875 760.492188 838.171875 C 753.675781 838.171875 748.109375 836.773438 743.832031 833.988281 C 739.558594 831.226562 736.3125 827.1875 734.085938 821.917969 C 731.855469 816.648438 730.730469 810.988281 730.730469 804.945312 C 730.730469 798.347656 731.984375 792.597656 734.507812 787.695312 C 737.03125 782.792969 740.609375 779.054688 745.269531 776.507812 C 749.914062 773.964844 755.039062 772.675781 760.621094 772.675781 C 766.960938 772.675781 772.289062 774.296875 776.601562 777.523438 C 780.929688 780.75 783.933594 785.28125 785.628906 791.125 L 777.375 793.078125 C 775.917969 788.46875 773.78125 785.117188 770.980469 783.015625 C 768.195312 780.914062 764.675781 779.863281 760.457031 779.863281 C 755.589844 779.863281 751.519531 781.023438 748.238281 783.347656 C 744.976562 785.6875 742.691406 788.820312 741.363281 792.746094 C 740.035156 796.671875 739.375 800.726562 739.375 804.910156 C 739.375 810.289062 740.148438 814.988281 741.730469 819.007812 C 743.296875 823.023438 745.730469 826.027344 749.046875 828.019531 C 752.367188 830.007812 755.941406 831.003906 759.792969 831.003906 C 764.492188 831.003906 768.472656 829.640625 771.714844 826.933594 C 774.976562 824.222656 777.171875 820.207031 778.332031 814.878906 Z M 796.6875 837.085938 L 796.6875 773.761719 L 805.054688 773.761719 L 805.054688 829.621094 L 836.234375 829.621094 L 836.234375 837.085938 Z M 846.410156 837.085938 L 846.410156 773.761719 L 892.1875 773.761719 L 892.1875 781.246094 L 854.777344 781.246094 L 854.777344 800.632812 L 889.808594 800.632812 L 889.808594 808.058594 L 854.777344 808.058594 L 854.777344 829.621094 L 893.660156 829.621094 L 893.660156 837.085938 Z M 846.410156 837.085938 "></path>
<path style="fill-rule:evenodd;fill:rgb(100%,100%,100%);fill-opacity:1;stroke-width:1.5001;stroke-linecap:butt;stroke-linejoin:miter;stroke:rgb(10.195923%,10.195923%,9.411621%);stroke-opacity:1;stroke-miterlimit:22.925586;" d="M 1010.832031 749.8853 C 1011.597656 750.150925 1012.332031 750.018112 1012.476562 749.600144 C 1012.621094 749.178269 1012.121094 748.623581 1011.359375 748.357956 C 1010.59375 748.096237 1009.859375 748.225144 1009.714844 748.647019 C 1009.566406 749.068894 1010.070312 749.623581 1010.832031 749.8853 Z M 1010.832031 749.8853 " transform="matrix(1,0,0,-1,0,1417.3228)"></path>
</g>
</svg>