<?xml version="1.0" encoding="UTF-8"?>
<svg xmlns="http://www.w3.org/2000/svg" xmlns:xlink="http://www.w3.org/1999/xlink" viewBox="829.69 1037.43 1832.46 897.13" version="1.1">
<g id="surface1">
<path style=" stroke:none;fill-rule:nonzero;fill:rgb(10.195923%,10.195923%,9.411621%);fill-opacity:1;" d="M 890.847656 1931.425781 L 829.894531 1739.453125 L 886.289062 1739.453125 L 906.511719 1814.933594 C 912.78125 1836.296875 917.90625 1857.371094 922.460938 1882.152344 L 923.03125 1882.152344 C 927.875 1858.511719 933.285156 1836.296875 938.980469 1815.789062 L 959.773438 1739.453125 L 1014.460938 1739.453125 L 951.515625 1931.425781 Z M 890.847656 1931.425781 "></path>
<path style=" stroke:none;fill-rule:nonzero;fill:rgb(10.195923%,10.195923%,9.411621%);fill-opacity:1;" d="M 1086.804688 1739.453125 L 1086.804688 1931.425781 L 1035.25 1931.425781 L 1035.25 1739.453125 Z M 1086.804688 1739.453125 "></path>
<path style=" stroke:none;fill-rule:nonzero;fill:rgb(10.195923%,10.195923%,9.411621%);fill-opacity:1;" d="M 1123.261719 1739.453125 L 1166.835938 1739.453125 L 1166.835938 1894.96875 L 1243.171875 1894.96875 L 1243.171875 1931.425781 L 1123.261719 1931.425781 Z M 1123.261719 1739.453125 "></path>
<path style=" stroke:none;fill-rule:nonzero;fill:rgb(10.195923%,10.195923%,9.411621%);fill-opacity:1;" d="M 1363.933594 1849.683594 L 1351.96875 1808.953125 C 1348.550781 1797.5625 1345.132812 1783.320312 1342.285156 1771.925781 L 1341.714844 1771.925781 C 1338.867188 1783.320312 1336.019531 1797.84375 1332.886719 1808.953125 L 1321.492188 1849.683594 Z M 1315.226562 1882.152344 L 1301.554688 1931.425781 L 1256.550781 1931.425781 L 1315.226562 1739.457031 L 1372.191406 1739.457031 L 1431.71875 1931.425781 L 1385.007812 1931.425781 L 1370.195312 1882.152344 Z M 1315.226562 1882.152344 "></path>
<path style=" stroke:none;fill-rule:nonzero;fill:rgb(10.195923%,10.195923%,9.411621%);fill-opacity:1;" d="M 1620.839844 1853.101562 C 1619.703125 1828.320312 1618.277344 1798.414062 1618.5625 1772.496094 L 1617.707031 1772.496094 C 1611.441406 1795.851562 1603.464844 1821.769531 1594.921875 1845.980469 L 1567.007812 1929.148438 L 1539.953125 1929.148438 L 1514.316406 1847.117188 C 1506.910156 1822.625 1500.074219 1796.421875 1494.949219 1772.496094 L 1494.378906 1772.496094 C 1493.523438 1797.558594 1492.386719 1828.035156 1490.960938 1854.238281 L 1486.6875 1931.425781 L 1453.933594 1931.425781 L 1466.753906 1739.453125 L 1512.894531 1739.453125 L 1537.957031 1816.644531 C 1544.792969 1839.144531 1550.773438 1861.929688 1555.617188 1883.292969 L 1556.46875 1883.292969 C 1561.597656 1862.5 1568.148438 1838.859375 1575.554688 1816.359375 L 1602.042969 1739.453125 L 1647.613281 1739.453125 L 1658.722656 1931.425781 L 1624.542969 1931.425781 Z M 1620.839844 1853.101562 "></path>
<path style=" stroke:none;fill-rule:nonzero;fill:rgb(10.195923%,10.195923%,9.411621%);fill-opacity:1;" d="M 1786.039062 1850.539062 L 1770.941406 1803.257812 C 1767.242188 1791.578125 1764.105469 1778.476562 1761.257812 1767.367188 L 1760.691406 1767.367188 C 1757.839844 1778.476562 1754.992188 1791.863281 1751.574219 1803.257812 L 1736.765625 1850.539062 Z M 1731.066406 1877.023438 L 1714.546875 1931.425781 L 1678.375 1931.425781 L 1739.898438 1739.457031 L 1784.613281 1739.457031 L 1846.992188 1931.425781 L 1809.394531 1931.425781 L 1792.019531 1877.023438 Z M 1731.066406 1877.023438 "></path>
<path style=" stroke:none;fill-rule:nonzero;fill:rgb(10.195923%,10.195923%,9.411621%);fill-opacity:1;" d="M 1875.1875 1931.425781 L 1875.1875 1739.453125 L 1902.246094 1739.453125 L 1963.765625 1836.582031 C 1978.007812 1859.082031 1989.117188 1879.304688 1998.230469 1898.957031 L 1998.800781 1898.671875 C 1996.523438 1873.039062 1995.953125 1849.683594 1995.953125 1819.777344 L 1995.953125 1739.453125 L 2019.304688 1739.453125 L 2019.304688 1931.425781 L 1994.242188 1931.425781 L 1933.289062 1834.015625 C 1919.902344 1812.65625 1907.085938 1790.722656 1897.402344 1769.929688 L 1896.546875 1770.214844 C 1897.972656 1794.425781 1898.539062 1817.496094 1898.539062 1849.398438 L 1898.539062 1931.425781 Z M 1875.1875 1931.425781 "></path>
<path style=" stroke:none;fill-rule:nonzero;fill:rgb(10.195923%,10.195923%,9.411621%);fill-opacity:1;" d="M 2087.378906 1739.453125 L 2087.378906 1931.425781 L 2062.597656 1931.425781 L 2062.597656 1739.453125 Z M 2087.378906 1739.453125 "></path>
<path style=" stroke:none;fill-rule:nonzero;fill:rgb(10.195923%,10.195923%,9.411621%);fill-opacity:1;" d="M 2127.253906 1901.234375 C 2138.363281 1908.070312 2154.597656 1913.765625 2171.6875 1913.765625 C 2197.035156 1913.765625 2211.847656 1900.378906 2211.847656 1881.011719 C 2211.847656 1863.070312 2201.59375 1852.816406 2175.675781 1842.847656 C 2144.34375 1831.738281 2124.976562 1815.503906 2124.976562 1788.445312 C 2124.976562 1758.539062 2149.753906 1736.320312 2187.066406 1736.320312 C 2206.71875 1736.320312 2220.960938 1740.882812 2229.507812 1745.722656 L 2222.667969 1765.945312 C 2216.402344 1762.527344 2203.585938 1756.828125 2186.210938 1756.828125 C 2160.007812 1756.828125 2150.039062 1772.496094 2150.039062 1785.597656 C 2150.039062 1803.539062 2161.71875 1812.371094 2188.207031 1822.625 C 2220.675781 1835.15625 2237.195312 1850.820312 2237.195312 1879.019531 C 2237.195312 1908.640625 2215.265625 1934.273438 2169.976562 1934.273438 C 2151.460938 1934.273438 2131.242188 1928.863281 2120.988281 1922.027344 Z M 2127.253906 1901.234375 "></path>
<path style=" stroke:none;fill-rule:nonzero;fill:rgb(10.195923%,10.195923%,9.411621%);fill-opacity:1;" d="M 2402.675781 1924.59375 C 2392.992188 1929.71875 2374.480469 1934.558594 2351.125 1934.558594 C 2304.695312 1934.558594 2260.265625 1904.65625 2260.265625 1836.582031 C 2260.265625 1779.617188 2297.007812 1736.324219 2357.390625 1736.324219 C 2381.882812 1736.324219 2396.125 1741.734375 2402.105469 1744.867188 L 2397.550781 1756.257812 C 2387.867188 1751.417969 2373.910156 1748 2357.675781 1748 C 2305.835938 1748 2274.222656 1781.609375 2274.222656 1836.867188 C 2274.222656 1888.988281 2304.128906 1922.597656 2355.394531 1922.597656 C 2371.917969 1922.597656 2387.867188 1919.179688 2398.691406 1913.769531 Z M 2402.675781 1924.59375 "></path>
<path style=" stroke:none;fill-rule:nonzero;fill:rgb(10.195923%,10.195923%,9.411621%);fill-opacity:1;" d="M 2435.144531 1739.453125 L 2448.53125 1739.453125 L 2448.53125 1920.03125 L 2534.265625 1920.03125 L 2534.265625 1931.425781 L 2435.144531 1931.425781 Z M 2435.144531 1739.453125 "></path>
<path style=" stroke:none;fill-rule:nonzero;fill:rgb(10.195923%,10.195923%,9.411621%);fill-opacity:1;" d="M 2653.035156 1836.011719 L 2576.132812 1836.011719 L 2576.132812 1920.035156 L 2662.148438 1920.035156 L 2662.148438 1931.425781 L 2562.746094 1931.425781 L 2562.746094 1739.453125 L 2657.59375 1739.453125 L 2657.59375 1750.847656 L 2576.132812 1750.847656 L 2576.132812 1824.617188 L 2653.035156 1824.617188 Z M 2653.035156 1836.011719 "></path>

<path style=" stroke:none;fill-rule:evenodd;fill:rgb(10.195923%,10.195923%,9.411621%);fill-opacity:1;" d="M 829.6875 1700.152344 L 1015.257812 1700.152344 L 1015.257812 1716.144531 L 829.6875 1716.144531 Z M 829.6875 1700.152344 "></path>
<path 
style=" stroke:none;fill-rule:nonzero;fill:rgb(10.195923%,10.195923%,9.411621%);fill-opacity:1;" d="M 1086.222656 1113.824219 L 1177.765625 1344.6875 L 1269.808594 1113.824219 L 1376.941406 1113.824219 L 1216.996094 1493.066406 L 1138.53125 1493.066406 L 979.089844 1113.824219 Z M 1086.222656 1113.824219 "></path>

</g>
</svg>
